Coordinates
version=1
nRows=22
nColumns=24
inDegrees=yes

Units are S.I. units (second, meters, Newtons, ...)
Angles are in degrees.

endheader
time	pelvis_tilt	pelvis_list	pelvis_rotation	pelvis_tx	pelvis_ty	pelvis_tz	hip_flexion_r	hip_adduction_r	hip_rotation_r	knee_angle_r	ankle_angle_r	subtalar_angle_r	mtp_angle_r	hip_flexion_l	hip_adduction_l	hip_rotation_l	knee_angle_l	ankle_angle_l	subtalar_angle_l	mtp_angle_l	lumbar_extension	lumbar_bending	lumbar_rotation
      1.39566667	     -1.79027465	      0.18141111	    -15.43730467	      0.95645524	      0.97715392	      0.35035488	    -16.60172271	     -1.66390321	      4.73951373	    -10.21963011	     14.69241733	      3.64781176	     11.77359851	     25.39619887	     -4.65012713	    -15.05575407	      6.08590106	      4.04691845	    -11.28851883	      9.28752332	     -1.41881791	      0.53196109	     12.88311767
      1.39983333	     -1.76022999	      0.28471411	    -15.58397862	      0.96262329	      0.97665766	      0.35011685	    -16.74621817	     -1.92631681	      4.75274059	    -10.61128085	     14.49135450	      3.63007532	     11.81817401	     25.39067341	     -4.60188557	    -15.05423038	      5.61970073	      4.16268712	    -11.48265560	      9.27618363	     -1.40829510	      0.40728430	     12.92218772
      1.40400000	     -1.72546232	      0.39624074	    -15.72230854	      0.96889053	      0.97616415	      0.34984631	    -16.88068219	     -2.20762499	      4.67142022	    -11.02667120	     14.25051739	      3.75186154	     16.00895225	     25.33469680	     -4.52478970	    -14.83840483	      5.20372963	      4.21175370	    -12.02235745	      8.43922522	     -1.37012463	      0.25196213	     13.07788789
      1.40816667	     -1.67943368	      0.54850756	    -15.87174091	      0.97520500	      0.97573180	      0.34961499	    -17.01472896	     -2.52605573	      4.67892374	    -11.45505182	     14.04726777	      3.69830040	     16.02821018	     25.30717719	     -4.41577306	    -14.87655198	      4.68546750	      4.29597930	    -12.14812426	      8.43907419	     -1.32101416	      0.03995175	     13.18738645
      1.41233333	     -1.64086563	      0.71761908	    -16.01253565	      0.98155184	      0.97530848	      0.34933323	    -17.11789152	     -2.86330945	      4.64563054	    -11.91753459	     13.83083027	      3.78240238	     16.11079589	     25.28522319	     -4.28044957	    -14.86984932	      4.14879890	      4.32665062	    -12.32754117	      8.44587714	     -1.28740479	     -0.19091772	     13.44620029
      1.41650000	     -1.59300465	      0.87285804	    -16.14242482	      0.98794085	      0.97493147	      0.34903406	    -17.22782590	     -3.18280964	      4.61728930	    -12.39176544	     13.55761647	      3.75640347	     16.14893786	     25.25422241	     -4.14776316	    -14.86489617	      3.58662989	      4.32609604	    -12.52279827	      8.44959644	     -1.23596771	     -0.38625317	     13.50960883
      1.42066667	     -1.55096355	      1.08332688	    -16.28436647	      0.99441201	      0.97455431	      0.34870915	    -17.28911393	     -3.57107164	      4.53279662	    -12.92281961	     13.32411867	      3.91046145	     16.33852668	     25.20218654	     -3.94983565	    -14.82266715	      3.08926697	      4.15002273	    -12.86734848	      8.47447771	     -1.17812123	     -0.65571220	     13.77235349
      1.42483333	     -1.50380971	      1.28168578	    -16.38823057	      1.00091151	      0.97421888	      0.34835202	    -17.36985222	     -3.92779124	      4.47569730	    -13.43509727	     12.98751908	      3.87269235	     16.43913769	     25.17290915	     -3.75073447	    -14.79388990	      2.51823477	      4.04761612	    -13.08915634	      8.49144177	     -1.09981779	     -0.91663173	     13.82748927
      1.42900000	     -1.44940098	      1.50629053	    -16.49106695	      1.00745812	      0.97390408	      0.34793587	    -17.41868627	     -4.32445135	      4.33939717	    -14.01054640	     12.70765371	      4.01620555	     17.09881281	     25.10500332	     -3.50171490	    -14.66739578	      2.02557178	      3.75992778	    -13.62540050	      8.60936621	     -1.04195685	     -1.19091027	     14.04725178
      1.43316667	     -1.40066821	      1.73507315	    -16.59076088	      1.01403829	      0.97363852	      0.34754650	    -17.45671668	     -4.70970777	      4.28000640	    -14.58919133	     12.28690928	      3.91293037	     17.18732284	     25.07128623	     -3.26018144	    -14.72650207	      1.47053534	      3.49307897	    -13.74797879	      8.62537690	     -0.94914615	     -1.47209296	     14.05774893
      1.43733333	     -1.35152956	      2.00532999	    -16.70243559	      1.02063959	      0.97337549	      0.34709892	    -17.43167018	     -5.15600545	      4.14042955	    -15.26661985	     11.97224961	      4.08104700	     17.74656276	     25.01182842	     -2.96182178	    -14.67787843	      0.99650521	      3.05395731	    -14.15861589	      8.73723982	     -0.87783332	     -1.79300240	     14.27261047
      1.44150000	     -1.27679677	      2.25150187	    -16.74334679	      1.02732965	      0.97320534	      0.34663557	    -17.51140937	     -5.54366406	      4.07426222	    -15.80085611	     11.36223627	      3.76407772	     23.21168767	     24.94502485	     -2.65591049	    -14.60335307	      0.47527005	      2.62698469	    -14.56268229	      9.97862637	     -0.80283138	     -2.11715510	     14.21035299
      1.44566667	     -1.24107882	      2.54780102	    -16.82627518	      1.03398287	      0.97298754	      0.34613655	    -17.42031041	     -6.00234322	      3.89660089	    -16.56548118	     10.95854502	      3.89530491	     23.27717595	     24.93693235	     -2.32945111	    -14.69231185	     -0.06146592	      2.23235027	    -14.67433202	      9.99908872	     -0.67885274	     -2.46304949	     14.34674689
      1.44983333	     -1.18740717	      2.84858407	    -16.84641742	      1.04072905	      0.97283671	      0.34560330	    -17.39568780	     -6.43882630	      3.75384411	    -17.24679192	     10.41144876	      3.82273265	     23.32569986	     24.92118458	     -1.96831522	    -14.71622746	     -0.61755367	      1.82942858	    -14.81252752	     10.01173843	     -0.56433420	     -2.84464840	     14.37740266
      1.45400000	     -1.12464328	      3.16335769	    -16.88563556	      1.04741941	      0.97270928	      0.34500949	    -17.29759388	     -6.91259276	      3.53811276	    -18.07006936	      9.93446102	      3.93086973	     23.63244878	     24.86959207	     -1.57741559	    -14.62456623	     -1.09096566	      1.28346896	    -15.27367290	     10.09111674	     -0.46482298	     -3.21656694	     14.49676497
      1.45816667	     -1.07450384	      3.48212945	    -16.89909949	      1.05411961	      0.97261214	      0.34441022	    -17.18908711	     -7.36748296	      3.37674124	    -18.88319809	      9.39214785	      3.92283296	     24.03899429	     24.87400891	     -1.19157200	    -14.63912218	     -1.64890951	      0.74376966	    -15.54494186	     10.19200495	     -0.34942645	     -3.60588929	     14.51067675
      1.46233333	     -1.00404231	      3.80448486	    -16.87985197	      1.06087823	      0.97258664	      0.34375992	    -17.09206698	     -7.82428335	      3.17756474	    -19.70933151	      8.68954572	      3.78427103	     28.23303432	     24.84567505	     -0.77858399	    -14.61596787	     -2.18336559	      0.25659914	    -15.73155396	     11.23990827	     -0.25532679	     -3.99600987	     14.49195156
      1.46650000	     -0.93389021	      4.13659857	    -16.86088642	      1.06761406	      0.97259327	      0.34310237	    -16.95798600	     -8.28815665	      2.99601943	    -20.60162568	      8.02355634	      3.72447416	     28.26389304	     24.83892703	     -0.36301071	    -14.64744927	     -2.75584145	     -0.18832144	    -15.81465278	     11.24885390	     -0.15565560	     -4.39800157	     14.51041242
      1.47066667	     -0.86786979	      4.47913690	    -16.82806791	      1.07433471	      0.97262143	      0.34240311	    -16.78241703	     -8.76070516	      2.79733017	    -21.55554592	      7.34735942	      3.70552032	     28.34937326	     24.84388461	      0.06968497	    -14.64665036	     -3.33649256	     -0.64055883	    -15.97653430	     11.26836930	     -0.04954439	     -4.81327351	     14.51879657
      1.47483333	     -0.78742786	      4.81542871	    -16.76352994	      1.08104280	      0.97271099	      0.34167878	    -16.62099347	     -9.21338459	      2.61984360	    -22.51234135	      6.58219787	      3.60303641	     28.40644418	     24.85326604	      0.50598252	    -14.64155417	     -3.96117397	     -1.01267315	    -16.06383066	     11.27825004	      0.02521881	     -5.24594782	     14.50548538
      1.47900000	     -0.73120273	      5.16945467	    -16.70289701	      1.08774050	      0.97278566	      0.34089589	    -16.36292817	     -9.69395129	      2.39466520	    -23.59223856	      5.87005543	      3.62081825	     28.59171630	     24.87130054	      0.96225518	    -14.60183462	     -4.53961430	     -1.44262309	    -16.24113435	     11.31000087	      0.14005887	     -5.65029755	     14.47782479
      1.48316667	     -0.62078788	      5.48267221	    -16.60188540	      1.09437447	      0.97298440	      0.34009082	    -16.18301486	    -10.12055045	      2.20721486	    -24.64482029	      5.04360420	      3.46727144	     28.64517522	     24.87287048	      1.39347198	    -14.59330351	     -5.23274157	     -1.70416132	    -16.30522150	     11.31799126	      0.16195562	     -6.04805166	     14.46018896
